<svg width="249" height="45" viewBox="0 0 249 45" fill="none" xmlns="http://www.w3.org/2000/svg">
<path d="M17.7375 22.2167C16.6139 22.2167 15.6267 22 14.776 21.5666C13.9252 21.1172 13.2591 20.4911 12.7775 19.6886C12.312 18.8699 12.0793 17.9309 12.0793 16.8715V10.2502C12.0793 9.20683 12.312 8.28386 12.7775 7.48128C13.2591 6.6787 13.9252 6.06071 14.776 5.62732C15.6267 5.17787 16.6139 4.95315 17.7375 4.95315C18.8611 4.95315 19.8483 5.16984 20.699 5.60324C21.5498 6.03663 22.2079 6.64659 22.6734 7.43313C23.1549 8.21966 23.3957 9.12657 23.3957 10.1539C23.3957 10.2341 23.3716 10.2983 23.3235 10.3465C23.2753 10.3947 23.2191 10.4187 23.1549 10.4187L21.927 10.491C21.7665 10.491 21.6862 10.4187 21.6862 10.2743V10.202C21.6862 9.06237 21.325 8.15545 20.6027 7.48128C19.8804 6.79106 18.9253 6.44595 17.7375 6.44595C16.5497 6.44595 15.5946 6.79106 14.8723 7.48128C14.1499 8.1715 13.7888 9.07842 13.7888 10.202V16.9437C13.7888 18.0673 14.1499 18.9743 14.8723 19.6645C15.5946 20.3547 16.5497 20.6998 17.7375 20.6998C18.9253 20.6998 19.8804 20.3627 20.6027 19.6886C21.325 18.9983 21.6862 18.0834 21.6862 16.9437V16.8956C21.6862 16.7511 21.7665 16.6789 21.927 16.6789L23.1549 16.7511C23.3154 16.7511 23.3957 16.8233 23.3957 16.9678C23.3957 18.0112 23.1549 18.9341 22.6734 19.7367C22.2079 20.5232 21.5498 21.1332 20.699 21.5666C19.8483 22 18.8611 22.2167 17.7375 22.2167ZM30.9461 9.62418C32.3907 9.62418 33.5063 9.99336 34.2928 10.7317C35.0794 11.4701 35.4726 12.4493 35.4726 13.6692V21.7592C35.4726 21.9197 35.3924 22 35.2318 22H34.0039C33.8434 22 33.7631 21.9197 33.7631 21.7592V20.772C33.7631 20.7399 33.7471 20.7159 33.715 20.6998C33.6989 20.6838 33.6748 20.6918 33.6427 20.7239C33.2414 21.2054 32.7198 21.5746 32.0777 21.8315C31.4356 22.0722 30.7213 22.1926 29.9348 22.1926C28.7951 22.1926 27.8401 21.9037 27.0696 21.3258C26.2991 20.748 25.9139 19.8651 25.9139 18.6773C25.9139 17.4734 26.3473 16.5264 27.214 15.8362C28.0969 15.1299 29.3168 14.7768 30.8738 14.7768H33.6668C33.731 14.7768 33.7631 14.7447 33.7631 14.6804V13.7655C33.7631 12.9469 33.5304 12.3048 33.0649 11.8393C32.6154 11.3578 31.9092 11.117 30.9461 11.117C30.1756 11.117 29.5496 11.2695 29.068 11.5745C28.5865 11.8634 28.2895 12.2727 28.1771 12.8024C28.129 12.9629 28.0327 13.0352 27.8882 13.0191L26.588 12.8506C26.4115 12.8185 26.3392 12.7542 26.3713 12.6579C26.4997 11.759 26.9813 11.0287 27.816 10.4669C28.6507 9.90508 29.694 9.62418 30.9461 9.62418ZM30.2719 20.7239C31.2189 20.7239 32.0376 20.4911 32.7278 20.0256C33.418 19.5441 33.7631 18.902 33.7631 18.0994V16.2214C33.7631 16.1572 33.731 16.1251 33.6668 16.1251H31.1387C30.0793 16.1251 29.2285 16.3418 28.5865 16.7752C27.9444 17.2086 27.6234 17.8105 27.6234 18.581C27.6234 19.2873 27.8641 19.825 28.3457 20.1942C28.8433 20.5473 29.4854 20.7239 30.2719 20.7239ZM43.9417 9.69641C44.4714 9.69641 44.9289 9.80074 45.3141 10.0094C45.4425 10.0736 45.4907 10.178 45.4586 10.3224L45.1937 11.5022C45.1456 11.6627 45.0412 11.7109 44.8807 11.6467C44.6078 11.5343 44.2948 11.4781 43.9417 11.4781L43.6287 11.5022C42.794 11.5343 42.1038 11.8473 41.558 12.4412C41.0123 13.0191 40.7394 13.7575 40.7394 14.6564V21.7592C40.7394 21.9197 40.6591 22 40.4986 22H39.2707C39.1101 22 39.0299 21.9197 39.0299 21.7592V10.0576C39.0299 9.89705 39.1101 9.8168 39.2707 9.8168H40.4986C40.6591 9.8168 40.7394 9.89705 40.7394 10.0576V11.5263C40.7394 11.5745 40.7474 11.6066 40.7635 11.6226C40.7956 11.6226 40.8196 11.6066 40.8357 11.5745C41.1728 10.9805 41.5981 10.5231 42.1118 10.202C42.6415 9.86495 43.2515 9.69641 43.9417 9.69641ZM48.0411 22C47.8805 22 47.8003 21.9197 47.8003 21.7592V5.38654C47.8003 5.22602 47.8805 5.14577 48.0411 5.14577H49.269C49.4295 5.14577 49.5098 5.22602 49.5098 5.38654V21.7592C49.5098 21.9197 49.4295 22 49.269 22H48.0411ZM61.6127 22C61.4361 22 61.3237 21.9197 61.2756 21.7592L56.7972 5.45877L56.7731 5.36246C56.7731 5.218 56.8614 5.14577 57.0379 5.14577H60.6977C60.8582 5.14577 60.9626 5.22602 61.0107 5.38654L63.1055 14.1507C63.1215 14.2149 63.1456 14.2471 63.1777 14.2471C63.2098 14.2471 63.2339 14.2149 63.2499 14.1507L65.128 5.41062C65.1601 5.23405 65.2644 5.14577 65.441 5.14577H68.7878C68.9483 5.14577 69.0526 5.22602 69.1008 5.38654L71.1955 14.1507C71.2116 14.2149 71.2356 14.2471 71.2677 14.2471C71.2998 14.2471 71.3239 14.2149 71.34 14.1507L73.2902 5.41062C73.3224 5.23405 73.4267 5.14577 73.6033 5.14577H77.1667C77.3914 5.14577 77.4797 5.2501 77.4316 5.45877L73.3625 21.7592C73.3143 21.9197 73.202 22 73.0254 22H69.5823C69.4057 22 69.3014 21.9117 69.2693 21.7351L67.1746 12.4412C67.1585 12.377 67.1344 12.3449 67.1023 12.3449C67.0702 12.3449 67.0462 12.377 67.0301 12.4412L65.1521 21.7351C65.12 21.9117 65.0156 22 64.8391 22H61.6127ZM79.4383 22C79.358 22 79.2858 21.9759 79.2216 21.9278C79.1734 21.8636 79.1493 21.7913 79.1493 21.7111V5.4347C79.1493 5.35444 79.1734 5.29023 79.2216 5.24208C79.2858 5.17787 79.358 5.14577 79.4383 5.14577H82.8573C82.9375 5.14577 83.0017 5.17787 83.0499 5.24208C83.1141 5.29023 83.1462 5.35444 83.1462 5.4347V21.7111C83.1462 21.7913 83.1141 21.8636 83.0499 21.9278C83.0017 21.9759 82.9375 22 82.8573 22H79.4383ZM85.8103 22C85.7301 22 85.6579 21.9759 85.5937 21.9278C85.5455 21.8636 85.5214 21.7913 85.5214 21.7111V5.4347C85.5214 5.35444 85.5455 5.29023 85.5937 5.24208C85.6579 5.17787 85.7301 5.14577 85.8103 5.14577H89.2293C89.3096 5.14577 89.3738 5.17787 89.422 5.24208C89.4862 5.29023 89.5183 5.35444 89.5183 5.4347V18.4606C89.5183 18.5409 89.5584 18.581 89.6387 18.581H97.3194C97.3996 18.581 97.4638 18.6131 97.512 18.6773C97.5762 18.7255 97.6083 18.7897 97.6083 18.8699V21.7111C97.6083 21.7913 97.5762 21.8636 97.512 21.9278C97.4638 21.9759 97.3996 22 97.3194 22H85.8103ZM99.6126 22C99.5323 22 99.4601 21.9759 99.3959 21.9278C99.3477 21.8636 99.3236 21.7913 99.3236 21.7111V5.4347C99.3236 5.35444 99.3477 5.29023 99.3959 5.24208C99.4601 5.17787 99.5323 5.14577 99.6126 5.14577H103.032C103.112 5.14577 103.176 5.17787 103.224 5.24208C103.288 5.29023 103.321 5.35444 103.321 5.4347V18.4606C103.321 18.5409 103.361 18.581 103.441 18.581H111.122C111.202 18.581 111.266 18.6131 111.314 18.6773C111.378 18.7255 111.411 18.7897 111.411 18.8699V21.7111C111.411 21.7913 111.378 21.8636 111.314 21.9278C111.266 21.9759 111.202 22 111.122 22H99.6126ZM124.317 22C124.141 22 124.028 21.9197 123.98 21.7592L123.354 19.6163C123.322 19.5521 123.282 19.52 123.234 19.52H117.744C117.696 19.52 117.656 19.5521 117.624 19.6163L116.998 21.7592C116.95 21.9197 116.837 22 116.661 22H112.977C112.881 22 112.808 21.9759 112.76 21.9278C112.712 21.8636 112.704 21.7753 112.736 21.6629L117.889 5.38654C117.937 5.22602 118.041 5.14577 118.202 5.14577H122.752C122.913 5.14577 123.017 5.22602 123.065 5.38654L128.242 21.6629C128.258 21.695 128.266 21.7351 128.266 21.7833C128.266 21.9278 128.178 22 128.001 22H124.317ZM118.587 16.2936C118.571 16.3899 118.603 16.4381 118.683 16.4381H122.271C122.367 16.4381 122.399 16.3899 122.367 16.2936L120.537 10.1057C120.521 10.0415 120.497 10.0174 120.465 10.0335C120.433 10.0335 120.409 10.0576 120.393 10.1057L118.587 16.2936ZM139.591 5.4347C139.591 5.35444 139.615 5.29023 139.663 5.24208C139.727 5.17787 139.799 5.14577 139.88 5.14577H143.299C143.379 5.14577 143.443 5.17787 143.491 5.24208C143.555 5.29023 143.587 5.35444 143.587 5.4347V21.7111C143.587 21.7913 143.555 21.8636 143.491 21.9278C143.443 21.9759 143.379 22 143.299 22H140.024C139.863 22 139.751 21.9358 139.687 21.8074L134.149 12.6098C134.117 12.5616 134.085 12.5456 134.053 12.5616C134.021 12.5616 134.005 12.5937 134.005 12.6579L134.029 21.7111C134.029 21.7913 133.997 21.8636 133.932 21.9278C133.884 21.9759 133.82 22 133.74 22H130.321C130.241 22 130.168 21.9759 130.104 21.9278C130.056 21.8636 130.032 21.7913 130.032 21.7111V5.4347C130.032 5.35444 130.056 5.29023 130.104 5.24208C130.168 5.17787 130.241 5.14577 130.321 5.14577H133.619C133.78 5.14577 133.892 5.20997 133.956 5.33839L139.47 14.5119C139.502 14.5601 139.534 14.5841 139.567 14.5841C139.599 14.5681 139.615 14.528 139.615 14.4637L139.591 5.4347ZM146.192 22C146.112 22 146.04 21.9759 145.975 21.9278C145.927 21.8636 145.903 21.7913 145.903 21.7111V5.4347C145.903 5.35444 145.927 5.29023 145.975 5.24208C146.04 5.17787 146.112 5.14577 146.192 5.14577H152.332C153.584 5.14577 154.691 5.36246 155.655 5.79586C156.618 6.22925 157.364 6.84724 157.894 7.64982C158.424 8.45241 158.688 9.37538 158.688 10.4187V16.727C158.688 17.7704 158.424 18.6934 157.894 19.4959C157.364 20.2985 156.618 20.9165 155.655 21.3499C154.691 21.7833 153.584 22 152.332 22H146.192ZM149.9 18.4606C149.9 18.5409 149.94 18.581 150.02 18.581H152.5C153.143 18.581 153.664 18.3563 154.065 17.9068C154.467 17.4413 154.675 16.8233 154.691 16.0529V11.0929C154.691 10.3224 154.483 9.71246 154.065 9.26301C153.664 8.79752 153.134 8.56477 152.476 8.56477H150.02C149.94 8.56477 149.9 8.6049 149.9 8.68515V18.4606ZM172.382 5.14577C172.463 5.14577 172.527 5.17787 172.575 5.24208C172.639 5.29023 172.671 5.35444 172.671 5.4347V8.29992C172.671 8.38017 172.639 8.45241 172.575 8.51661C172.527 8.56477 172.463 8.58884 172.382 8.58884H168.169C168.089 8.58884 168.048 8.62897 168.048 8.70923V21.7111C168.048 21.7913 168.016 21.8636 167.952 21.9278C167.904 21.9759 167.84 22 167.76 22H164.341C164.26 22 164.188 21.9759 164.124 21.9278C164.076 21.8636 164.052 21.7913 164.052 21.7111V8.70923C164.052 8.62897 164.011 8.58884 163.931 8.58884H159.862C159.782 8.58884 159.71 8.56477 159.645 8.51661C159.597 8.45241 159.573 8.38017 159.573 8.29992V5.4347C159.573 5.35444 159.597 5.29023 159.645 5.24208C159.71 5.17787 159.782 5.14577 159.862 5.14577H172.382Z" fill="#0D1B2A"/>
<path d="M18.5015 31.5483C18.5015 31.6283 18.4615 31.6683 18.3815 31.6683H14.1215C14.0895 31.6683 14.0735 31.6843 14.0735 31.7163V34.2963C14.0735 34.3283 14.0895 34.3443 14.1215 34.3443H17.0495C17.1295 34.3443 17.1695 34.3843 17.1695 34.4643V35.2203C17.1695 35.3003 17.1295 35.3403 17.0495 35.3403H14.1215C14.0895 35.3403 14.0735 35.3563 14.0735 35.3883V38.0283C14.0735 38.0603 14.0895 38.0763 14.1215 38.0763H18.3815C18.4615 38.0763 18.5015 38.1163 18.5015 38.1963V38.9523C18.5015 39.0323 18.4615 39.0723 18.3815 39.0723H13.0415C12.9615 39.0723 12.9215 39.0323 12.9215 38.9523V30.7923C12.9215 30.7123 12.9615 30.6723 13.0415 30.6723H18.3815C18.4615 30.6723 18.5015 30.7123 18.5015 30.7923V31.5483ZM22.6134 39.0723C22.5334 39.0723 22.4934 39.0323 22.4934 38.9523V30.7923C22.4934 30.7123 22.5334 30.6723 22.6134 30.6723H25.5174C26.3494 30.6723 27.0134 30.8923 27.5094 31.3323C28.0054 31.7643 28.2534 32.3443 28.2534 33.0723V36.6723C28.2534 37.4003 28.0054 37.9843 27.5094 38.4243C27.0134 38.8563 26.3494 39.0723 25.5174 39.0723H22.6134ZM23.6454 38.0283C23.6454 38.0603 23.6614 38.0763 23.6934 38.0763H25.5654C26.0294 38.0763 26.3974 37.9363 26.6694 37.6563C26.9494 37.3683 27.0934 36.9843 27.1014 36.5043V33.2403C27.1014 32.7603 26.9614 32.3803 26.6814 32.1003C26.4094 31.8123 26.0374 31.6683 25.5654 31.6683H23.6934C23.6614 31.6683 23.6454 31.6843 23.6454 31.7163V38.0283ZM35.1793 39.1683C34.5953 39.1683 34.0793 39.0563 33.6313 38.8323C33.1913 38.6003 32.8473 38.2763 32.5993 37.8603C32.3513 37.4363 32.2273 36.9523 32.2273 36.4083V30.7923C32.2273 30.7123 32.2673 30.6723 32.3473 30.6723H33.2593C33.3393 30.6723 33.3793 30.7123 33.3793 30.7923V36.4323C33.3793 36.9523 33.5433 37.3723 33.8713 37.6923C34.2073 38.0123 34.6433 38.1723 35.1793 38.1723C35.7153 38.1723 36.1473 38.0123 36.4753 37.6923C36.8033 37.3723 36.9673 36.9523 36.9673 36.4323V30.7923C36.9673 30.7123 37.0073 30.6723 37.0873 30.6723H37.9993C38.0793 30.6723 38.1193 30.7123 38.1193 30.7923V36.4083C38.1193 36.9523 37.9953 37.4363 37.7473 37.8603C37.5073 38.2763 37.1633 38.6003 36.7153 38.8323C36.2753 39.0563 35.7633 39.1683 35.1793 39.1683ZM44.9908 39.1683C44.3748 39.1683 43.8388 39.0723 43.3828 38.8803C42.9348 38.6883 42.5868 38.4163 42.3388 38.0643C42.0988 37.7123 41.9788 37.3003 41.9788 36.8283V36.4803C41.9788 36.4003 42.0188 36.3603 42.0988 36.3603H42.9748C43.0548 36.3603 43.0948 36.4003 43.0948 36.4803V36.7683C43.0948 37.1763 43.2708 37.5123 43.6228 37.7763C43.9748 38.0403 44.4588 38.1723 45.0748 38.1723C45.6268 38.1723 46.0428 38.0563 46.3228 37.8243C46.6028 37.5923 46.7428 37.2883 46.7428 36.9123C46.7428 36.6643 46.6708 36.4523 46.5268 36.2763C46.3828 36.1003 46.1708 35.9403 45.8908 35.7963C45.6188 35.6443 45.2188 35.4643 44.6908 35.2563C44.1068 35.0323 43.6428 34.8283 43.2988 34.6443C42.9628 34.4603 42.6828 34.2203 42.4588 33.9243C42.2348 33.6203 42.1228 33.2403 42.1228 32.7843C42.1228 32.0963 42.3668 31.5563 42.8548 31.1643C43.3508 30.7723 44.0188 30.5763 44.8588 30.5763C45.4508 30.5763 45.9708 30.6763 46.4188 30.8763C46.8668 31.0763 47.2108 31.3563 47.4508 31.7163C47.6988 32.0763 47.8228 32.4923 47.8228 32.9643V33.2043C47.8228 33.2843 47.7828 33.3243 47.7028 33.3243H46.8028C46.7228 33.3243 46.6828 33.2843 46.6828 33.2043V33.0243C46.6828 32.6083 46.5148 32.2643 46.1788 31.9923C45.8508 31.7123 45.3948 31.5723 44.8108 31.5723C44.3148 31.5723 43.9308 31.6763 43.6588 31.8843C43.3868 32.0843 43.2508 32.3763 43.2508 32.7603C43.2508 33.0243 43.3188 33.2403 43.4548 33.4083C43.5908 33.5763 43.7908 33.7283 44.0548 33.8643C44.3268 33.9923 44.7388 34.1603 45.2908 34.3683C45.8588 34.5923 46.3188 34.8003 46.6708 34.9923C47.0228 35.1763 47.3148 35.4243 47.5468 35.7363C47.7788 36.0403 47.8948 36.4203 47.8948 36.8763C47.8948 37.5803 47.6348 38.1403 47.1148 38.5563C46.6028 38.9643 45.8948 39.1683 44.9908 39.1683ZM51.9735 39.0723C51.8935 39.0723 51.8535 39.0323 51.8535 38.9523V30.7923C51.8535 30.7123 51.8935 30.6723 51.9735 30.6723H52.8855C52.9655 30.6723 53.0055 30.7123 53.0055 30.7923V34.6203C53.0055 34.6363 53.0135 34.6483 53.0295 34.6563C53.0455 34.6563 53.0575 34.6483 53.0655 34.6323L56.4975 30.7443C56.5295 30.6963 56.5775 30.6723 56.6415 30.6723H57.6855C57.7335 30.6723 57.7655 30.6883 57.7815 30.7203C57.7975 30.7443 57.7895 30.7763 57.7575 30.8163L54.9015 34.1883C54.8935 34.2123 54.8935 34.2363 54.9015 34.2603L57.9615 38.9283C57.9775 38.9603 57.9855 38.9843 57.9855 39.0003C57.9855 39.0483 57.9535 39.0723 57.8895 39.0723H56.8455C56.7895 39.0723 56.7415 39.0483 56.7015 39.0003L54.1095 35.0763C54.1015 35.0603 54.0895 35.0523 54.0735 35.0523C54.0575 35.0523 54.0455 35.0563 54.0375 35.0643L53.0295 36.1923C53.0135 36.2243 53.0055 36.2443 53.0055 36.2523V38.9523C53.0055 39.0323 52.9655 39.0723 52.8855 39.0723H51.9735ZM64.5161 39.1683C63.9321 39.1683 63.4161 39.0563 62.9681 38.8323C62.5281 38.6003 62.1841 38.2763 61.9361 37.8603C61.6881 37.4363 61.5641 36.9523 61.5641 36.4083V30.7923C61.5641 30.7123 61.6041 30.6723 61.6841 30.6723H62.5961C62.6761 30.6723 62.7161 30.7123 62.7161 30.7923V36.4323C62.7161 36.9523 62.8801 37.3723 63.2081 37.6923C63.5441 38.0123 63.9801 38.1723 64.5161 38.1723C65.0521 38.1723 65.4841 38.0123 65.8121 37.6923C66.1401 37.3723 66.3041 36.9523 66.3041 36.4323V30.7923C66.3041 30.7123 66.3441 30.6723 66.4241 30.6723H67.3361C67.4161 30.6723 67.4561 30.7123 67.4561 30.7923V36.4083C67.4561 36.9523 67.3321 37.4363 67.0841 37.8603C66.8441 38.2763 66.5001 38.6003 66.0521 38.8323C65.6121 39.0563 65.1001 39.1683 64.5161 39.1683ZM76.6796 30.7923C76.6796 30.7123 76.7196 30.6723 76.7996 30.6723H77.7116C77.7916 30.6723 77.8316 30.7123 77.8316 30.7923V38.9523C77.8316 39.0323 77.7916 39.0723 77.7116 39.0723H76.8356C76.7796 39.0723 76.7316 39.0443 76.6916 38.9883L72.9356 32.8563C72.9276 32.8323 72.9156 32.8243 72.8996 32.8323C72.8836 32.8323 72.8756 32.8443 72.8756 32.8683L72.8876 38.9523C72.8876 39.0323 72.8476 39.0723 72.7676 39.0723H71.8556C71.7756 39.0723 71.7356 39.0323 71.7356 38.9523V30.7923C71.7356 30.7123 71.7756 30.6723 71.8556 30.6723H72.7436C72.7996 30.6723 72.8476 30.7003 72.8876 30.7563L76.6316 36.8883C76.6396 36.9123 76.6516 36.9243 76.6676 36.9243C76.6836 36.9163 76.6916 36.9003 76.6916 36.8763L76.6796 30.7923ZM87.5498 30.6723C87.6298 30.6723 87.6698 30.7123 87.6698 30.7923V31.5603C87.6698 31.6403 87.6298 31.6803 87.5498 31.6803H85.2458C85.2138 31.6803 85.1978 31.6963 85.1978 31.7283V38.9523C85.1978 39.0323 85.1578 39.0723 85.0778 39.0723H84.1658C84.0858 39.0723 84.0458 39.0323 84.0458 38.9523V31.7283C84.0458 31.6963 84.0298 31.6803 83.9978 31.6803H81.8018C81.7218 31.6803 81.6818 31.6403 81.6818 31.5603V30.7923C81.6818 30.7123 81.7218 30.6723 81.8018 30.6723H87.5498ZM95.8973 39.0723C95.8253 39.0723 95.7773 39.0403 95.7533 38.9763L95.3213 37.5723C95.3133 37.5483 95.2973 37.5363 95.2733 37.5363H91.9013C91.8773 37.5363 91.8613 37.5483 91.8533 37.5723L91.4213 38.9763C91.3973 39.0403 91.3493 39.0723 91.2773 39.0723H90.3053C90.2173 39.0723 90.1853 39.0283 90.2093 38.9403L92.8373 30.7683C92.8613 30.7043 92.9093 30.6723 92.9813 30.6723H94.1813C94.2533 30.6723 94.3013 30.7043 94.3253 30.7683L96.9773 38.9403L96.9893 38.9883C96.9893 39.0443 96.9533 39.0723 96.8813 39.0723H95.8973ZM92.1533 36.5643C92.1453 36.5803 92.1453 36.5963 92.1533 36.6123C92.1693 36.6203 92.1853 36.6243 92.2013 36.6243H94.9613C94.9773 36.6243 94.9893 36.6203 94.9973 36.6123C95.0133 36.5963 95.0173 36.5803 95.0093 36.5643L93.6173 32.1123C93.6093 32.0963 93.5973 32.0883 93.5813 32.0883C93.5653 32.0883 93.5533 32.0963 93.5453 32.1123L92.1533 36.5643ZM102.423 39.0723C102.351 39.0723 102.303 39.0403 102.279 38.9763L99.7108 30.8043L99.6988 30.7563C99.6988 30.7003 99.7348 30.6723 99.8068 30.6723H100.779C100.851 30.6723 100.899 30.7043 100.923 30.7683L102.903 37.4043C102.911 37.4203 102.923 37.4283 102.939 37.4283C102.955 37.4283 102.967 37.4203 102.975 37.4043L104.955 30.7683C104.979 30.7043 105.023 30.6723 105.087 30.6723H106.035C106.123 30.6723 106.155 30.7163 106.131 30.8043L103.539 38.9763C103.515 39.0403 103.467 39.0723 103.395 39.0723H102.423ZM113.857 39.0723C113.785 39.0723 113.737 39.0403 113.713 38.9763L113.281 37.5723C113.273 37.5483 113.257 37.5363 113.233 37.5363H109.861C109.837 37.5363 109.821 37.5483 109.813 37.5723L109.381 38.9763C109.357 39.0403 109.309 39.0723 109.237 39.0723H108.265C108.177 39.0723 108.145 39.0283 108.169 38.9403L110.797 30.7683C110.821 30.7043 110.869 30.6723 110.941 30.6723H112.141C112.213 30.6723 112.261 30.7043 112.285 30.7683L114.937 38.9403L114.949 38.9883C114.949 39.0443 114.913 39.0723 114.841 39.0723H113.857ZM110.113 36.5643C110.105 36.5803 110.105 36.5963 110.113 36.6123C110.129 36.6203 110.145 36.6243 110.161 36.6243H112.921C112.937 36.6243 112.949 36.6203 112.957 36.6123C112.973 36.5963 112.977 36.5803 112.969 36.5643L111.577 32.1123C111.569 32.0963 111.557 32.0883 111.541 32.0883C111.525 32.0883 111.513 32.0963 111.505 32.1123L110.113 36.5643ZM123.816 39.0723C123.744 39.0723 123.696 39.0403 123.672 38.9763L123.24 37.5723C123.232 37.5483 123.216 37.5363 123.192 37.5363H119.82C119.796 37.5363 119.78 37.5483 119.772 37.5723L119.34 38.9763C119.316 39.0403 119.268 39.0723 119.196 39.0723H118.224C118.136 39.0723 118.104 39.0283 118.128 38.9403L120.756 30.7683C120.78 30.7043 120.828 30.6723 120.9 30.6723H122.1C122.172 30.6723 122.22 30.7043 122.244 30.7683L124.896 38.9403L124.908 38.9883C124.908 39.0443 124.872 39.0723 124.8 39.0723H123.816ZM120.072 36.5643C120.064 36.5803 120.064 36.5963 120.072 36.6123C120.088 36.6203 120.104 36.6243 120.12 36.6243H122.88C122.896 36.6243 122.908 36.6203 122.916 36.6123C122.932 36.5963 122.936 36.5803 122.928 36.5643L121.536 32.1123C121.528 32.0963 121.516 32.0883 121.5 32.0883C121.484 32.0883 121.472 32.0963 121.464 32.1123L120.072 36.5643ZM128.795 39.0723C128.715 39.0723 128.675 39.0323 128.675 38.9523V30.7923C128.675 30.7123 128.715 30.6723 128.795 30.6723H129.707C129.787 30.6723 129.827 30.7123 129.827 30.7923V38.0283C129.827 38.0603 129.843 38.0763 129.875 38.0763H134.015C134.095 38.0763 134.135 38.1163 134.135 38.1963V38.9523C134.135 39.0323 134.095 39.0723 134.015 39.0723H128.795ZM138.038 39.0723C137.958 39.0723 137.918 39.0323 137.918 38.9523V30.7923C137.918 30.7123 137.958 30.6723 138.038 30.6723H138.95C139.03 30.6723 139.07 30.7123 139.07 30.7923V38.9523C139.07 39.0323 139.03 39.0723 138.95 39.0723H138.038ZM149.016 31.5483C149.016 31.6283 148.976 31.6683 148.896 31.6683H144.636C144.604 31.6683 144.588 31.6843 144.588 31.7163V34.2963C144.588 34.3283 144.604 34.3443 144.636 34.3443H147.564C147.644 34.3443 147.684 34.3843 147.684 34.4643V35.2203C147.684 35.3003 147.644 35.3403 147.564 35.3403H144.636C144.604 35.3403 144.588 35.3563 144.588 35.3883V38.0283C144.588 38.0603 144.604 38.0763 144.636 38.0763H148.896C148.976 38.0763 149.016 38.1163 149.016 38.1963V38.9523C149.016 39.0323 148.976 39.0723 148.896 39.0723H143.556C143.476 39.0723 143.436 39.0323 143.436 38.9523V30.7923C143.436 30.7123 143.476 30.6723 143.556 30.6723H148.896C148.976 30.6723 149.016 30.7123 149.016 30.7923V31.5483ZM157.675 30.7923C157.675 30.7123 157.715 30.6723 157.795 30.6723H158.707C158.787 30.6723 158.827 30.7123 158.827 30.7923V38.9523C158.827 39.0323 158.787 39.0723 158.707 39.0723H157.795C157.715 39.0723 157.675 39.0323 157.675 38.9523V35.3883C157.675 35.3563 157.659 35.3403 157.627 35.3403H154.207C154.175 35.3403 154.159 35.3563 154.159 35.3883V38.9523C154.159 39.0323 154.119 39.0723 154.039 39.0723H153.127C153.047 39.0723 153.007 39.0323 153.007 38.9523V30.7923C153.007 30.7123 153.047 30.6723 153.127 30.6723H154.039C154.119 30.6723 154.159 30.7123 154.159 30.7923V34.2963C154.159 34.3283 154.175 34.3443 154.207 34.3443H157.627C157.659 34.3443 157.675 34.3283 157.675 34.2963V30.7923ZM163.262 39.0723C163.182 39.0723 163.142 39.0323 163.142 38.9523V30.7923C163.142 30.7123 163.182 30.6723 163.262 30.6723H166.166C166.998 30.6723 167.662 30.8923 168.158 31.3323C168.654 31.7643 168.902 32.3443 168.902 33.0723V36.6723C168.902 37.4003 168.654 37.9843 168.158 38.4243C167.662 38.8563 166.998 39.0723 166.166 39.0723H163.262ZM164.294 38.0283C164.294 38.0603 164.31 38.0763 164.342 38.0763H166.214C166.678 38.0763 167.046 37.9363 167.318 37.6563C167.598 37.3683 167.742 36.9843 167.75 36.5043V33.2403C167.75 32.7603 167.61 32.3803 167.33 32.1003C167.058 31.8123 166.686 31.6683 166.214 31.6683H164.342C164.31 31.6683 164.294 31.6843 164.294 31.7163V38.0283ZM175.672 39.1803C175.088 39.1803 174.572 39.0603 174.124 38.8203C173.676 38.5803 173.328 38.2443 173.08 37.8123C172.832 37.3723 172.708 36.8683 172.708 36.3003V33.4443C172.708 32.8763 172.832 32.3763 173.08 31.9443C173.328 31.5123 173.676 31.1763 174.124 30.9363C174.572 30.6963 175.088 30.5763 175.672 30.5763C176.264 30.5763 176.784 30.6963 177.232 30.9363C177.68 31.1763 178.028 31.5123 178.276 31.9443C178.524 32.3763 178.648 32.8763 178.648 33.4443V36.3003C178.648 36.8683 178.524 37.3723 178.276 37.8123C178.028 38.2443 177.68 38.5803 177.232 38.8203C176.784 39.0603 176.264 39.1803 175.672 39.1803ZM175.672 38.1843C176.216 38.1843 176.656 38.0163 176.992 37.6803C177.328 37.3443 177.496 36.9003 177.496 36.3483V33.4323C177.496 32.8723 177.328 32.4243 176.992 32.0883C176.656 31.7443 176.216 31.5723 175.672 31.5723C175.128 31.5723 174.688 31.7443 174.352 32.0883C174.024 32.4243 173.86 32.8723 173.86 33.4323V36.3483C173.86 36.9003 174.024 37.3443 174.352 37.6803C174.688 38.0163 175.128 38.1843 175.672 38.1843ZM182.921 39.0723C182.841 39.0723 182.801 39.0323 182.801 38.9523V30.7923C182.801 30.7123 182.841 30.6723 182.921 30.6723H183.833C183.913 30.6723 183.953 30.7123 183.953 30.7923V34.6203C183.953 34.6363 183.961 34.6483 183.977 34.6563C183.993 34.6563 184.005 34.6483 184.013 34.6323L187.445 30.7443C187.477 30.6963 187.525 30.6723 187.589 30.6723H188.633C188.681 30.6723 188.713 30.6883 188.729 30.7203C188.745 30.7443 188.737 30.7763 188.705 30.8163L185.849 34.1883C185.841 34.2123 185.841 34.2363 185.849 34.2603L188.909 38.9283C188.925 38.9603 188.933 38.9843 188.933 39.0003C188.933 39.0483 188.901 39.0723 188.837 39.0723H187.793C187.737 39.0723 187.689 39.0483 187.649 39.0003L185.057 35.0763C185.049 35.0603 185.037 35.0523 185.021 35.0523C185.005 35.0523 184.993 35.0563 184.985 35.0643L183.977 36.1923C183.961 36.2243 183.953 36.2443 183.953 36.2523V38.9523C183.953 39.0323 183.913 39.0723 183.833 39.0723H182.921ZM197.965 39.0723C197.893 39.0723 197.845 39.0403 197.821 38.9763L197.389 37.5723C197.381 37.5483 197.365 37.5363 197.341 37.5363H193.969C193.945 37.5363 193.929 37.5483 193.921 37.5723L193.489 38.9763C193.465 39.0403 193.417 39.0723 193.345 39.0723H192.373C192.285 39.0723 192.253 39.0283 192.277 38.9403L194.905 30.7683C194.929 30.7043 194.977 30.6723 195.049 30.6723H196.249C196.321 30.6723 196.369 30.7043 196.393 30.7683L199.045 38.9403L199.057 38.9883C199.057 39.0443 199.021 39.0723 198.949 39.0723H197.965ZM194.221 36.5643C194.213 36.5803 194.213 36.5963 194.221 36.6123C194.237 36.6203 194.253 36.6243 194.269 36.6243H197.029C197.045 36.6243 197.057 36.6203 197.065 36.6123C197.081 36.5963 197.085 36.5803 197.077 36.5643L195.685 32.1123C195.677 32.0963 195.665 32.0883 195.649 32.0883C195.633 32.0883 195.621 32.0963 195.613 32.1123L194.221 36.5643ZM204.947 39.1683C204.331 39.1683 203.795 39.0723 203.339 38.8803C202.891 38.6883 202.543 38.4163 202.295 38.0643C202.055 37.7123 201.935 37.3003 201.935 36.8283V36.4803C201.935 36.4003 201.975 36.3603 202.055 36.3603H202.931C203.011 36.3603 203.051 36.4003 203.051 36.4803V36.7683C203.051 37.1763 203.227 37.5123 203.579 37.7763C203.931 38.0403 204.415 38.1723 205.031 38.1723C205.583 38.1723 205.999 38.0563 206.279 37.8243C206.559 37.5923 206.699 37.2883 206.699 36.9123C206.699 36.6643 206.627 36.4523 206.483 36.2763C206.339 36.1003 206.127 35.9403 205.847 35.7963C205.575 35.6443 205.175 35.4643 204.647 35.2563C204.063 35.0323 203.599 34.8283 203.255 34.6443C202.919 34.4603 202.639 34.2203 202.415 33.9243C202.191 33.6203 202.079 33.2403 202.079 32.7843C202.079 32.0963 202.323 31.5563 202.811 31.1643C203.307 30.7723 203.975 30.5763 204.815 30.5763C205.407 30.5763 205.927 30.6763 206.375 30.8763C206.823 31.0763 207.167 31.3563 207.407 31.7163C207.655 32.0763 207.779 32.4923 207.779 32.9643V33.2043C207.779 33.2843 207.739 33.3243 207.659 33.3243H206.759C206.679 33.3243 206.639 33.2843 206.639 33.2043V33.0243C206.639 32.6083 206.471 32.2643 206.135 31.9923C205.807 31.7123 205.351 31.5723 204.767 31.5723C204.271 31.5723 203.887 31.6763 203.615 31.8843C203.343 32.0843 203.207 32.3763 203.207 32.7603C203.207 33.0243 203.275 33.2403 203.411 33.4083C203.547 33.5763 203.747 33.7283 204.011 33.8643C204.283 33.9923 204.695 34.1603 205.247 34.3683C205.815 34.5923 206.275 34.8003 206.627 34.9923C206.979 35.1763 207.271 35.4243 207.503 35.7363C207.735 36.0403 207.851 36.4203 207.851 36.8763C207.851 37.5803 207.591 38.1403 207.071 38.5563C206.559 38.9643 205.851 39.1683 204.947 39.1683ZM217.776 38.0163C217.768 38.0323 217.768 38.0483 217.776 38.0643C217.784 38.0723 217.796 38.0763 217.812 38.0763H221.424C221.504 38.0763 221.544 38.1163 221.544 38.1963V38.9523C221.544 39.0323 221.504 39.0723 221.424 39.0723H216.396C216.316 39.0723 216.276 39.0323 216.276 38.9523V38.2203C216.276 38.1643 216.296 38.1163 216.336 38.0763C216.608 37.7643 217.232 37.0323 218.208 35.8803L219.036 34.8843C219.78 33.9963 220.152 33.3083 220.152 32.8203C220.152 32.4443 220.024 32.1443 219.768 31.9203C219.52 31.6883 219.188 31.5723 218.772 31.5723C218.356 31.5723 218.024 31.6883 217.776 31.9203C217.528 32.1523 217.408 32.4563 217.416 32.8323V33.1923C217.416 33.2723 217.376 33.3123 217.296 33.3123H216.372C216.292 33.3123 216.252 33.2723 216.252 33.1923V32.6763C216.268 32.2603 216.384 31.8923 216.6 31.5723C216.824 31.2523 217.124 31.0083 217.5 30.8403C217.876 30.6643 218.3 30.5763 218.772 30.5763C219.284 30.5763 219.732 30.6723 220.116 30.8643C220.5 31.0563 220.796 31.3203 221.004 31.6563C221.212 31.9923 221.316 32.3723 221.316 32.7963C221.316 33.4603 220.956 34.2443 220.236 35.1483C219.916 35.5563 219.536 36.0163 219.096 36.5283C218.656 37.0323 218.216 37.5283 217.776 38.0163ZM227.939 39.1923C227.131 39.1923 226.487 38.9643 226.007 38.5083C225.535 38.0443 225.299 37.4243 225.299 36.6483V33.0963C225.299 32.3203 225.535 31.7043 226.007 31.2483C226.487 30.7923 227.131 30.5643 227.939 30.5643C228.747 30.5643 229.391 30.7923 229.871 31.2483C230.359 31.7043 230.603 32.3203 230.603 33.0963V36.6483C230.603 37.4243 230.359 38.0443 229.871 38.5083C229.391 38.9643 228.747 39.1923 227.939 39.1923ZM227.939 38.1963C228.403 38.1963 228.771 38.0643 229.043 37.8003C229.315 37.5283 229.451 37.1683 229.451 36.7203V33.0483C229.451 32.6003 229.315 32.2443 229.043 31.9803C228.771 31.7083 228.403 31.5723 227.939 31.5723C227.491 31.5723 227.131 31.7083 226.859 31.9803C226.587 32.2443 226.451 32.6003 226.451 33.0483V36.7203C226.451 37.1683 226.587 37.5283 226.859 37.8003C227.131 38.0643 227.491 38.1963 227.939 38.1963ZM235.9 38.0163C235.892 38.0323 235.892 38.0483 235.9 38.0643C235.908 38.0723 235.92 38.0763 235.936 38.0763H239.548C239.628 38.0763 239.668 38.1163 239.668 38.1963V38.9523C239.668 39.0323 239.628 39.0723 239.548 39.0723H234.52C234.44 39.0723 234.4 39.0323 234.4 38.9523V38.2203C234.4 38.1643 234.42 38.1163 234.46 38.0763C234.732 37.7643 235.356 37.0323 236.332 35.8803L237.16 34.8843C237.904 33.9963 238.276 33.3083 238.276 32.8203C238.276 32.4443 238.148 32.1443 237.892 31.9203C237.644 31.6883 237.312 31.5723 236.896 31.5723C236.48 31.5723 236.148 31.6883 235.9 31.9203C235.652 32.1523 235.532 32.4563 235.54 32.8323V33.1923C235.54 33.2723 235.5 33.3123 235.42 33.3123H234.496C234.416 33.3123 234.376 33.2723 234.376 33.1923V32.6763C234.392 32.2603 234.508 31.8923 234.724 31.5723C234.948 31.2523 235.248 31.0083 235.624 30.8403C236 30.6643 236.424 30.5763 236.896 30.5763C237.408 30.5763 237.856 30.6723 238.24 30.8643C238.624 31.0563 238.92 31.3203 239.128 31.6563C239.336 31.9923 239.44 32.3723 239.44 32.7963C239.44 33.4603 239.08 34.2443 238.36 35.1483C238.04 35.5563 237.66 36.0163 237.22 36.5283C236.78 37.0323 236.34 37.5283 235.9 38.0163ZM244.36 39.0723C244.32 39.0723 244.288 39.0603 244.264 39.0363C244.248 39.0043 244.248 38.9683 244.264 38.9283L246.988 31.7283C246.996 31.7123 246.996 31.7003 246.988 31.6923C246.98 31.6763 246.968 31.6683 246.952 31.6683H244.06C244.028 31.6683 244.012 31.6843 244.012 31.7163V32.2803C244.012 32.3603 243.972 32.4003 243.892 32.4003H243.172C243.092 32.4003 243.052 32.3603 243.052 32.2803V30.7923C243.052 30.7123 243.092 30.6723 243.172 30.6723H248.104C248.184 30.6723 248.224 30.7123 248.224 30.7923V31.5963C248.224 31.6283 248.216 31.6763 248.2 31.7403L245.488 38.9763C245.464 39.0403 245.42 39.0723 245.356 39.0723H244.36Z" fill="#0D1B2A"/>
<path d="M0.794922 0.0566406V44.0566" stroke="#0D1B2A" stroke-width="1.59166"/>
</svg>
