<svg width="267" height="111" viewBox="0 0 267 111" fill="none" xmlns="http://www.w3.org/2000/svg">
<path d="M24.1427 38.3046C22.5632 38.3046 21.1755 38 19.9796 37.3908C18.7837 36.759 17.8473 35.879 17.1704 34.7508C16.5161 33.6 16.1889 32.28 16.1889 30.7908V21.4831C16.1889 20.0164 16.5161 18.719 17.1704 17.5908C17.8473 16.4626 18.7837 15.5938 19.9796 14.9846C21.1755 14.3528 22.5632 14.0369 24.1427 14.0369C25.7222 14.0369 27.1099 14.3415 28.3058 14.9508C29.5017 15.56 30.4268 16.4174 31.0812 17.5231C31.7581 18.6287 32.0966 19.9036 32.0966 21.3477C32.0966 21.4605 32.0627 21.5508 31.995 21.6185C31.9273 21.6862 31.8484 21.72 31.7581 21.72L30.032 21.8215C29.8063 21.8215 29.6935 21.72 29.6935 21.5169V21.4154C29.6935 19.8133 29.1858 18.5385 28.1704 17.5908C27.155 16.6205 25.8125 16.1354 24.1427 16.1354C22.473 16.1354 21.1304 16.6205 20.115 17.5908C19.0996 18.561 18.592 19.8359 18.592 21.4154V30.8923C18.592 32.4718 19.0996 33.7467 20.115 34.7169C21.1304 35.6872 22.473 36.1723 24.1427 36.1723C25.8125 36.1723 27.155 35.6985 28.1704 34.7508C29.1858 33.7805 29.6935 32.4944 29.6935 30.8923V30.8246C29.6935 30.6215 29.8063 30.52 30.032 30.52L31.7581 30.6215C31.9837 30.6215 32.0966 30.7231 32.0966 30.9262C32.0966 32.3928 31.7581 33.6903 31.0812 34.8185C30.4268 35.9241 29.5017 36.7815 28.3058 37.3908C27.1099 38 25.7222 38.3046 24.1427 38.3046ZM42.7102 20.6031C44.741 20.6031 46.3092 21.1221 47.4149 22.16C48.5205 23.1979 49.0733 24.5744 49.0733 26.2892V37.6615C49.0733 37.8872 48.9605 38 48.7349 38H47.0087C46.7831 38 46.6702 37.8872 46.6702 37.6615V36.2738C46.6702 36.2287 46.6477 36.1949 46.6026 36.1723C46.58 36.1497 46.5461 36.161 46.501 36.2062C45.9369 36.8831 45.2036 37.4021 44.301 37.7631C43.3985 38.1015 42.3943 38.2708 41.2887 38.2708C39.6867 38.2708 38.3441 37.8646 37.261 37.0523C36.1779 36.24 35.6364 34.999 35.6364 33.3292C35.6364 31.6369 36.2456 30.3056 37.4641 29.3354C38.7051 28.3426 40.42 27.8462 42.6087 27.8462H46.5349C46.6251 27.8462 46.6702 27.801 46.6702 27.7108V26.4246C46.6702 25.2738 46.3431 24.3713 45.6887 23.7169C45.0569 23.04 44.0641 22.7015 42.7102 22.7015C41.6272 22.7015 40.7472 22.9159 40.0702 23.3446C39.3933 23.7508 38.9759 24.3262 38.8179 25.0708C38.7502 25.2964 38.6149 25.3979 38.4118 25.3754L36.5841 25.1385C36.3359 25.0933 36.2343 25.0031 36.2795 24.8677C36.46 23.6041 37.1369 22.5774 38.3102 21.7877C39.4836 20.9979 40.9502 20.6031 42.7102 20.6031ZM41.7626 36.2062C43.0938 36.2062 44.2446 35.879 45.2149 35.2246C46.1851 34.5477 46.6702 33.6451 46.6702 32.5169V29.8769C46.6702 29.7867 46.6251 29.7415 46.5349 29.7415H42.981C41.4918 29.7415 40.2959 30.0462 39.3933 30.6554C38.4908 31.2646 38.0395 32.1108 38.0395 33.1938C38.0395 34.1867 38.3779 34.9426 39.0549 35.4615C39.7543 35.9579 40.6569 36.2062 41.7626 36.2062ZM60.9784 20.7046C61.7231 20.7046 62.3661 20.8513 62.9077 21.1446C63.0882 21.2349 63.1559 21.3815 63.1107 21.5846L62.7384 23.2431C62.6708 23.4687 62.5241 23.5364 62.2984 23.4462C61.9149 23.2882 61.4749 23.2092 60.9784 23.2092L60.5384 23.2431C59.3651 23.2882 58.3949 23.7282 57.6277 24.5631C56.8605 25.3754 56.4769 26.4133 56.4769 27.6769V37.6615C56.4769 37.8872 56.3641 38 56.1384 38H54.4123C54.1866 38 54.0738 37.8872 54.0738 37.6615V21.2123C54.0738 20.9867 54.1866 20.8738 54.4123 20.8738H56.1384C56.3641 20.8738 56.4769 20.9867 56.4769 21.2123V23.2769C56.4769 23.3446 56.4882 23.3897 56.5108 23.4123C56.5559 23.4123 56.5897 23.3897 56.6123 23.3446C57.0861 22.5097 57.6841 21.8667 58.4061 21.4154C59.1508 20.9415 60.0082 20.7046 60.9784 20.7046ZM66.741 38C66.5154 38 66.4026 37.8872 66.4026 37.6615V14.6462C66.4026 14.4205 66.5154 14.3077 66.741 14.3077H68.4672C68.6928 14.3077 68.8056 14.4205 68.8056 14.6462V37.6615C68.8056 37.8872 68.6928 38 68.4672 38H66.741ZM21.2996 72C21.0514 72 20.8935 71.8872 20.8258 71.6615L14.5304 48.7477L14.4966 48.6123C14.4966 48.4092 14.6207 48.3077 14.8689 48.3077H20.0135C20.2391 48.3077 20.3858 48.4205 20.4535 48.6462L23.3981 60.9662C23.4207 61.0564 23.4545 61.1015 23.4996 61.1015C23.5448 61.1015 23.5786 61.0564 23.6012 60.9662L26.2412 48.68C26.2863 48.4318 26.433 48.3077 26.6812 48.3077H31.3858C31.6114 48.3077 31.7581 48.4205 31.8258 48.6462L34.7704 60.9662C34.793 61.0564 34.8268 61.1015 34.872 61.1015C34.9171 61.1015 34.9509 61.0564 34.9735 60.9662L37.715 48.68C37.7602 48.4318 37.9068 48.3077 38.155 48.3077H43.1643C43.4802 48.3077 43.6043 48.4544 43.5366 48.7477L37.8166 71.6615C37.7489 71.8872 37.5909 72 37.3427 72H32.5027C32.2545 72 32.1079 71.8759 32.0627 71.6277L29.1181 58.5631C29.0955 58.4728 29.0617 58.4277 29.0166 58.4277C28.9714 58.4277 28.9376 58.4728 28.915 58.5631L26.275 71.6277C26.2299 71.8759 26.0832 72 25.835 72H21.2996ZM46.3574 72C46.2446 72 46.1431 71.9662 46.0528 71.8985C45.9851 71.8082 45.9513 71.7067 45.9513 71.5938V48.7138C45.9513 48.601 45.9851 48.5108 46.0528 48.4431C46.1431 48.3528 46.2446 48.3077 46.3574 48.3077H51.1636C51.2764 48.3077 51.3667 48.3528 51.4344 48.4431C51.5246 48.5108 51.5697 48.601 51.5697 48.7138V71.5938C51.5697 71.7067 51.5246 71.8082 51.4344 71.8985C51.3667 71.9662 51.2764 72 51.1636 72H46.3574ZM55.3148 72C55.2019 72 55.1004 71.9662 55.0101 71.8985C54.9425 71.8082 54.9086 71.7067 54.9086 71.5938V48.7138C54.9086 48.601 54.9425 48.5108 55.0101 48.4431C55.1004 48.3528 55.2019 48.3077 55.3148 48.3077H60.1209C60.2337 48.3077 60.324 48.3528 60.3917 48.4431C60.4819 48.5108 60.5271 48.601 60.5271 48.7138V67.0246C60.5271 67.1374 60.5835 67.1938 60.6963 67.1938H71.4932C71.606 67.1938 71.6963 67.239 71.764 67.3292C71.8543 67.3969 71.8994 67.4872 71.8994 67.6V71.5938C71.8994 71.7067 71.8543 71.8082 71.764 71.8985C71.6963 71.9662 71.606 72 71.4932 72H55.3148ZM74.7168 72C74.604 72 74.5024 71.9662 74.4122 71.8985C74.3445 71.8082 74.3107 71.7067 74.3107 71.5938V48.7138C74.3107 48.601 74.3445 48.5108 74.4122 48.4431C74.5024 48.3528 74.604 48.3077 74.7168 48.3077H79.523C79.6358 48.3077 79.726 48.3528 79.7937 48.4431C79.884 48.5108 79.9291 48.601 79.9291 48.7138V67.0246C79.9291 67.1374 79.9855 67.1938 80.0983 67.1938H90.8953C91.0081 67.1938 91.0983 67.239 91.166 67.3292C91.2563 67.3969 91.3014 67.4872 91.3014 67.6V71.5938C91.3014 71.7067 91.2563 71.8082 91.166 71.8985C91.0983 71.9662 91.0081 72 90.8953 72H74.7168ZM109.445 72C109.197 72 109.039 71.8872 108.971 71.6615L108.091 68.6492C108.046 68.559 107.989 68.5138 107.922 68.5138H100.205C100.137 68.5138 100.081 68.559 100.036 68.6492L99.1556 71.6615C99.0879 71.8872 98.9299 72 98.6817 72H93.5033C93.3679 72 93.2663 71.9662 93.1987 71.8985C93.131 71.8082 93.1197 71.6841 93.1648 71.5262L100.408 48.6462C100.476 48.4205 100.622 48.3077 100.848 48.3077H107.245C107.47 48.3077 107.617 48.4205 107.685 48.6462L114.962 71.5262C114.984 71.5713 114.996 71.6277 114.996 71.6954C114.996 71.8985 114.871 72 114.623 72H109.445ZM101.389 63.9785C101.367 64.1138 101.412 64.1815 101.525 64.1815H106.568C106.703 64.1815 106.748 64.1138 106.703 63.9785L104.131 55.28C104.108 55.1897 104.075 55.1559 104.029 55.1785C103.984 55.1785 103.95 55.2123 103.928 55.28L101.389 63.9785ZM130.915 48.7138C130.915 48.601 130.948 48.5108 131.016 48.4431C131.106 48.3528 131.208 48.3077 131.321 48.3077H136.127C136.24 48.3077 136.33 48.3528 136.398 48.4431C136.488 48.5108 136.533 48.601 136.533 48.7138V71.5938C136.533 71.7067 136.488 71.8082 136.398 71.8985C136.33 71.9662 136.24 72 136.127 72H131.524C131.298 72 131.14 71.9097 131.05 71.7292L123.265 58.8C123.22 58.7323 123.175 58.7097 123.13 58.7323C123.085 58.7323 123.062 58.7774 123.062 58.8677L123.096 71.5938C123.096 71.7067 123.051 71.8082 122.961 71.8985C122.893 71.9662 122.803 72 122.69 72H117.884C117.771 72 117.67 71.9662 117.579 71.8985C117.512 71.8082 117.478 71.7067 117.478 71.5938V48.7138C117.478 48.601 117.512 48.5108 117.579 48.4431C117.67 48.3528 117.771 48.3077 117.884 48.3077H122.521C122.746 48.3077 122.904 48.3979 122.995 48.5785L130.745 61.4738C130.791 61.5415 130.836 61.5754 130.881 61.5754C130.926 61.5528 130.948 61.4964 130.948 61.4062L130.915 48.7138ZM140.195 72C140.082 72 139.98 71.9662 139.89 71.8985C139.822 71.8082 139.788 71.7067 139.788 71.5938V48.7138C139.788 48.601 139.822 48.5108 139.89 48.4431C139.98 48.3528 140.082 48.3077 140.195 48.3077H148.825C150.585 48.3077 152.142 48.6123 153.496 49.2215C154.85 49.8308 155.899 50.6995 156.644 51.8277C157.388 52.9559 157.761 54.2533 157.761 55.72V64.5877C157.761 66.0544 157.388 67.3518 156.644 68.48C155.899 69.6082 154.85 70.4769 153.496 71.0862C152.142 71.6954 150.585 72 148.825 72H140.195ZM145.407 67.0246C145.407 67.1374 145.463 67.1938 145.576 67.1938H149.062C149.965 67.1938 150.698 66.8779 151.262 66.2462C151.826 65.5918 152.12 64.7231 152.142 63.64V56.6677C152.142 55.5846 151.849 54.7272 151.262 54.0954C150.698 53.441 149.954 53.1138 149.028 53.1138H145.576C145.463 53.1138 145.407 53.1703 145.407 53.2831V67.0246ZM177.011 48.3077C177.124 48.3077 177.214 48.3528 177.281 48.4431C177.372 48.5108 177.417 48.601 177.417 48.7138V52.7415C177.417 52.8544 177.372 52.9559 177.281 53.0462C177.214 53.1138 177.124 53.1477 177.011 53.1477H171.088C170.975 53.1477 170.918 53.2041 170.918 53.3169V71.5938C170.918 71.7067 170.873 71.8082 170.783 71.8985C170.715 71.9662 170.625 72 170.512 72H165.706C165.593 72 165.492 71.9662 165.401 71.8985C165.334 71.8082 165.3 71.7067 165.3 71.5938V53.3169C165.3 53.2041 165.244 53.1477 165.131 53.1477H159.411C159.298 53.1477 159.196 53.1138 159.106 53.0462C159.038 52.9559 159.005 52.8544 159.005 52.7415V48.7138C159.005 48.601 159.038 48.5108 159.106 48.4431C159.196 48.3528 159.298 48.3077 159.411 48.3077H177.011Z" fill="#F5F3F0"/>
<path d="M22.8099 101.351C22.8099 101.435 22.7676 101.477 22.683 101.477H18.1772C18.1433 101.477 18.1264 101.494 18.1264 101.528V104.257C18.1264 104.291 18.1433 104.308 18.1772 104.308H21.2741C21.3587 104.308 21.401 104.35 21.401 104.435V105.234C21.401 105.319 21.3587 105.361 21.2741 105.361H18.1772C18.1433 105.361 18.1264 105.378 18.1264 105.412V108.204C18.1264 108.238 18.1433 108.255 18.1772 108.255H22.683C22.7676 108.255 22.8099 108.297 22.8099 108.382V109.182C22.8099 109.266 22.7676 109.309 22.683 109.309H17.0349C16.9503 109.309 16.908 109.266 16.908 109.182V100.551C16.908 100.466 16.9503 100.424 17.0349 100.424H22.683C22.7676 100.424 22.8099 100.466 22.8099 100.551V101.351ZM27.159 109.309C27.0744 109.309 27.0321 109.266 27.0321 109.182V100.551C27.0321 100.466 27.0744 100.424 27.159 100.424H30.2305C31.1105 100.424 31.8128 100.657 32.3374 101.122C32.8621 101.579 33.1244 102.192 33.1244 102.962V106.77C33.1244 107.54 32.8621 108.158 32.3374 108.623C31.8128 109.08 31.1105 109.309 30.2305 109.309H27.159ZM28.2505 108.204C28.2505 108.238 28.2674 108.255 28.3013 108.255H30.2813C30.7721 108.255 31.1613 108.107 31.449 107.811C31.7451 107.506 31.8974 107.1 31.9059 106.592V103.14C31.9059 102.632 31.7578 102.231 31.4617 101.934C31.174 101.63 30.7805 101.477 30.2813 101.477H28.3013C28.2674 101.477 28.2505 101.494 28.2505 101.528V108.204ZM40.4499 109.41C39.8322 109.41 39.2864 109.292 38.8126 109.055C38.3472 108.809 37.9834 108.467 37.7211 108.027C37.4588 107.578 37.3276 107.066 37.3276 106.491V100.551C37.3276 100.466 37.3699 100.424 37.4545 100.424H38.4191C38.5038 100.424 38.5461 100.466 38.5461 100.551V106.516C38.5461 107.066 38.7195 107.511 39.0664 107.849C39.4218 108.187 39.883 108.357 40.4499 108.357C41.0168 108.357 41.4738 108.187 41.8207 107.849C42.1676 107.511 42.3411 107.066 42.3411 106.516V100.551C42.3411 100.466 42.3834 100.424 42.468 100.424H43.4326C43.5172 100.424 43.5595 100.466 43.5595 100.551V106.491C43.5595 107.066 43.4284 107.578 43.1661 108.027C42.9122 108.467 42.5484 108.809 42.0745 109.055C41.6091 109.292 41.0676 109.41 40.4499 109.41ZM50.8275 109.41C50.1759 109.41 49.609 109.309 49.1267 109.106C48.6528 108.902 48.2848 108.615 48.0225 108.242C47.7686 107.87 47.6417 107.434 47.6417 106.935V106.567C47.6417 106.482 47.684 106.44 47.7686 106.44H48.6951C48.7798 106.44 48.8221 106.482 48.8221 106.567V106.872C48.8221 107.303 49.0082 107.659 49.3805 107.938C49.7528 108.217 50.2648 108.357 50.9163 108.357C51.5001 108.357 51.9401 108.234 52.2363 107.989C52.5325 107.743 52.6805 107.422 52.6805 107.024C52.6805 106.762 52.6044 106.537 52.4521 106.351C52.2998 106.165 52.0755 105.996 51.7794 105.844C51.4917 105.683 51.0686 105.492 50.5101 105.272C49.8925 105.036 49.4017 104.82 49.0378 104.625C48.6825 104.431 48.3863 104.177 48.1494 103.864C47.9125 103.542 47.794 103.14 47.794 102.658C47.794 101.93 48.0521 101.359 48.5682 100.944C49.0928 100.53 49.7994 100.322 50.6878 100.322C51.314 100.322 51.864 100.428 52.3378 100.64C52.8117 100.851 53.1755 101.147 53.4294 101.528C53.6917 101.909 53.8228 102.349 53.8228 102.848V103.102C53.8228 103.187 53.7805 103.229 53.6959 103.229H52.744C52.6594 103.229 52.6171 103.187 52.6171 103.102V102.912C52.6171 102.472 52.4394 102.108 52.084 101.82C51.7371 101.524 51.2548 101.376 50.6371 101.376C50.1125 101.376 49.7063 101.486 49.4186 101.706C49.1309 101.917 48.9871 102.226 48.9871 102.632C48.9871 102.912 49.059 103.14 49.2028 103.318C49.3467 103.496 49.5582 103.656 49.8375 103.8C50.1251 103.936 50.5609 104.113 51.1448 104.333C51.7455 104.57 52.2321 104.79 52.6044 104.993C52.9767 105.188 53.2855 105.45 53.5309 105.78C53.7763 106.102 53.899 106.504 53.899 106.986C53.899 107.731 53.624 108.323 53.074 108.763C52.5325 109.194 51.7836 109.41 50.8275 109.41ZM58.213 109.309C58.1284 109.309 58.0861 109.266 58.0861 109.182V100.551C58.0861 100.466 58.1284 100.424 58.213 100.424H59.1776C59.2622 100.424 59.3045 100.466 59.3045 100.551V104.6C59.3045 104.617 59.313 104.629 59.3299 104.638C59.3468 104.638 59.3595 104.629 59.368 104.612L62.998 100.5C63.0318 100.449 63.0826 100.424 63.1503 100.424H64.2545C64.3053 100.424 64.3391 100.441 64.3561 100.475C64.373 100.5 64.3645 100.534 64.3307 100.576L61.3099 104.143C61.3014 104.168 61.3014 104.194 61.3099 104.219L64.5464 109.156C64.5634 109.19 64.5718 109.216 64.5718 109.232C64.5718 109.283 64.538 109.309 64.4703 109.309H63.3661C63.3068 109.309 63.2561 109.283 63.2138 109.232L60.4722 105.082C60.4638 105.065 60.4511 105.057 60.4341 105.057C60.4172 105.057 60.4045 105.061 60.3961 105.069L59.3299 106.262C59.313 106.296 59.3045 106.317 59.3045 106.326V109.182C59.3045 109.266 59.2622 109.309 59.1776 109.309H58.213ZM71.4791 109.41C70.8614 109.41 70.3157 109.292 69.8418 109.055C69.3764 108.809 69.0126 108.467 68.7503 108.027C68.488 107.578 68.3568 107.066 68.3568 106.491V100.551C68.3568 100.466 68.3991 100.424 68.4837 100.424H69.4484C69.533 100.424 69.5753 100.466 69.5753 100.551V106.516C69.5753 107.066 69.7487 107.511 70.0957 107.849C70.451 108.187 70.9122 108.357 71.4791 108.357C72.046 108.357 72.503 108.187 72.8499 107.849C73.1968 107.511 73.3703 107.066 73.3703 106.516V100.551C73.3703 100.466 73.4126 100.424 73.4972 100.424H74.4618C74.5464 100.424 74.5887 100.466 74.5887 100.551V106.491C74.5887 107.066 74.4576 107.578 74.1953 108.027C73.9414 108.467 73.5776 108.809 73.1037 109.055C72.6384 109.292 72.0968 109.41 71.4791 109.41ZM84.3444 100.551C84.3444 100.466 84.3867 100.424 84.4713 100.424H85.4359C85.5205 100.424 85.5628 100.466 85.5628 100.551V109.182C85.5628 109.266 85.5205 109.309 85.4359 109.309H84.5094C84.4501 109.309 84.3994 109.279 84.3571 109.22L80.3844 102.734C80.3759 102.709 80.3632 102.7 80.3463 102.709C80.3294 102.709 80.3209 102.721 80.3209 102.747L80.3336 109.182C80.3336 109.266 80.2913 109.309 80.2067 109.309H79.2421C79.1574 109.309 79.1151 109.266 79.1151 109.182V100.551C79.1151 100.466 79.1574 100.424 79.2421 100.424H80.1813C80.2405 100.424 80.2913 100.454 80.3336 100.513L84.2936 106.999C84.3021 107.024 84.3148 107.037 84.3317 107.037C84.3486 107.028 84.3571 107.011 84.3571 106.986L84.3444 100.551ZM95.8417 100.424C95.9263 100.424 95.9686 100.466 95.9686 100.551V101.363C95.9686 101.448 95.9263 101.49 95.8417 101.49H93.4048C93.3709 101.49 93.354 101.507 93.354 101.541V109.182C93.354 109.266 93.3117 109.309 93.2271 109.309H92.2625C92.1779 109.309 92.1356 109.266 92.1356 109.182V101.541C92.1356 101.507 92.1186 101.49 92.0848 101.49H89.7621C89.6775 101.49 89.6352 101.448 89.6352 101.363V100.551C89.6352 100.466 89.6775 100.424 89.7621 100.424H95.8417ZM104.671 109.309C104.595 109.309 104.544 109.275 104.518 109.207L104.062 107.722C104.053 107.697 104.036 107.684 104.011 107.684H100.444C100.419 107.684 100.402 107.697 100.393 107.722L99.9366 109.207C99.9112 109.275 99.8604 109.309 99.7843 109.309H98.7562C98.6631 109.309 98.6293 109.262 98.6546 109.169L101.434 100.526C101.46 100.458 101.51 100.424 101.587 100.424H102.856C102.932 100.424 102.983 100.458 103.008 100.526L105.813 109.169L105.826 109.22C105.826 109.279 105.788 109.309 105.712 109.309H104.671ZM100.711 106.656C100.702 106.673 100.702 106.69 100.711 106.707C100.728 106.715 100.745 106.719 100.762 106.719H103.681C103.698 106.719 103.71 106.715 103.719 106.707C103.736 106.69 103.74 106.673 103.732 106.656L102.259 101.947C102.251 101.93 102.238 101.922 102.221 101.922C102.204 101.922 102.192 101.93 102.183 101.947L100.711 106.656ZM111.573 109.309C111.497 109.309 111.446 109.275 111.421 109.207L108.704 100.564L108.692 100.513C108.692 100.454 108.73 100.424 108.806 100.424H109.834C109.91 100.424 109.961 100.458 109.986 100.526L112.081 107.544C112.089 107.561 112.102 107.57 112.119 107.57C112.136 107.57 112.148 107.561 112.157 107.544L114.251 100.526C114.276 100.458 114.323 100.424 114.391 100.424H115.393C115.486 100.424 115.52 100.471 115.495 100.564L112.753 109.207C112.728 109.275 112.677 109.309 112.601 109.309H111.573ZM123.667 109.309C123.591 109.309 123.54 109.275 123.515 109.207L123.058 107.722C123.049 107.697 123.033 107.684 123.007 107.684H119.441C119.415 107.684 119.398 107.697 119.39 107.722L118.933 109.207C118.908 109.275 118.857 109.309 118.781 109.309H117.753C117.659 109.309 117.626 109.262 117.651 109.169L120.431 100.526C120.456 100.458 120.507 100.424 120.583 100.424H121.852C121.928 100.424 121.979 100.458 122.004 100.526L124.809 109.169L124.822 109.22C124.822 109.279 124.784 109.309 124.708 109.309H123.667ZM119.707 106.656C119.699 106.673 119.699 106.69 119.707 106.707C119.724 106.715 119.741 106.719 119.758 106.719H122.677C122.694 106.719 122.707 106.715 122.715 106.707C122.732 106.69 122.736 106.673 122.728 106.656L121.256 101.947C121.247 101.93 121.234 101.922 121.218 101.922C121.201 101.922 121.188 101.93 121.179 101.947L119.707 106.656ZM134.2 109.309C134.124 109.309 134.073 109.275 134.048 109.207L133.591 107.722C133.583 107.697 133.566 107.684 133.54 107.684H129.974C129.948 107.684 129.931 107.697 129.923 107.722L129.466 109.207C129.441 109.275 129.39 109.309 129.314 109.309H128.286C128.193 109.309 128.159 109.262 128.184 109.169L130.964 100.526C130.989 100.458 131.04 100.424 131.116 100.424H132.385C132.461 100.424 132.512 100.458 132.538 100.526L135.343 109.169L135.355 109.22C135.355 109.279 135.317 109.309 135.241 109.309H134.2ZM130.24 106.656C130.232 106.673 130.232 106.69 130.24 106.707C130.257 106.715 130.274 106.719 130.291 106.719H133.21C133.227 106.719 133.24 106.715 133.248 106.707C133.265 106.69 133.269 106.673 133.261 106.656L131.789 101.947C131.78 101.93 131.768 101.922 131.751 101.922C131.734 101.922 131.721 101.93 131.713 101.947L130.24 106.656ZM139.466 109.309C139.381 109.309 139.339 109.266 139.339 109.182V100.551C139.339 100.466 139.381 100.424 139.466 100.424H140.431C140.515 100.424 140.558 100.466 140.558 100.551V108.204C140.558 108.238 140.575 108.255 140.608 108.255H144.987C145.072 108.255 145.114 108.297 145.114 108.382V109.182C145.114 109.266 145.072 109.309 144.987 109.309H139.466ZM149.243 109.309C149.159 109.309 149.116 109.266 149.116 109.182V100.551C149.116 100.466 149.159 100.424 149.243 100.424H150.208C150.292 100.424 150.335 100.466 150.335 100.551V109.182C150.335 109.266 150.292 109.309 150.208 109.309H149.243ZM160.854 101.351C160.854 101.435 160.811 101.477 160.727 101.477H156.221C156.187 101.477 156.17 101.494 156.17 101.528V104.257C156.17 104.291 156.187 104.308 156.221 104.308H159.318C159.402 104.308 159.445 104.35 159.445 104.435V105.234C159.445 105.319 159.402 105.361 159.318 105.361H156.221C156.187 105.361 156.17 105.378 156.17 105.412V108.204C156.17 108.238 156.187 108.255 156.221 108.255H160.727C160.811 108.255 160.854 108.297 160.854 108.382V109.182C160.854 109.266 160.811 109.309 160.727 109.309H155.079C154.994 109.309 154.952 109.266 154.952 109.182V100.551C154.952 100.466 154.994 100.424 155.079 100.424H160.727C160.811 100.424 160.854 100.466 160.854 100.551V101.351ZM170.013 100.551C170.013 100.466 170.055 100.424 170.14 100.424H171.105C171.189 100.424 171.232 100.466 171.232 100.551V109.182C171.232 109.266 171.189 109.309 171.105 109.309H170.14C170.055 109.309 170.013 109.266 170.013 109.182V105.412C170.013 105.378 169.996 105.361 169.962 105.361H166.345C166.311 105.361 166.294 105.378 166.294 105.412V109.182C166.294 109.266 166.252 109.309 166.167 109.309H165.203C165.118 109.309 165.076 109.266 165.076 109.182V100.551C165.076 100.466 165.118 100.424 165.203 100.424H166.167C166.252 100.424 166.294 100.466 166.294 100.551V104.257C166.294 104.291 166.311 104.308 166.345 104.308H169.962C169.996 104.308 170.013 104.291 170.013 104.257V100.551ZM175.922 109.309C175.837 109.309 175.795 109.266 175.795 109.182V100.551C175.795 100.466 175.837 100.424 175.922 100.424H178.993C179.873 100.424 180.576 100.657 181.1 101.122C181.625 101.579 181.887 102.192 181.887 102.962V106.77C181.887 107.54 181.625 108.158 181.1 108.623C180.576 109.08 179.873 109.309 178.993 109.309H175.922ZM177.013 108.204C177.013 108.238 177.03 108.255 177.064 108.255H179.044C179.535 108.255 179.924 108.107 180.212 107.811C180.508 107.506 180.66 107.1 180.669 106.592V103.14C180.669 102.632 180.521 102.231 180.224 101.934C179.937 101.63 179.543 101.477 179.044 101.477H177.064C177.03 101.477 177.013 101.494 177.013 101.528V108.204ZM189.048 109.423C188.431 109.423 187.885 109.296 187.411 109.042C186.937 108.788 186.569 108.433 186.307 107.976C186.044 107.511 185.913 106.977 185.913 106.377V103.356C185.913 102.755 186.044 102.226 186.307 101.769C186.569 101.312 186.937 100.957 187.411 100.703C187.885 100.449 188.431 100.322 189.048 100.322C189.674 100.322 190.224 100.449 190.698 100.703C191.172 100.957 191.54 101.312 191.802 101.769C192.065 102.226 192.196 102.755 192.196 103.356V106.377C192.196 106.977 192.065 107.511 191.802 107.976C191.54 108.433 191.172 108.788 190.698 109.042C190.224 109.296 189.674 109.423 189.048 109.423ZM189.048 108.369C189.624 108.369 190.089 108.192 190.444 107.836C190.8 107.481 190.977 107.011 190.977 106.427V103.343C190.977 102.751 190.8 102.277 190.444 101.922C190.089 101.558 189.624 101.376 189.048 101.376C188.473 101.376 188.007 101.558 187.652 101.922C187.305 102.277 187.132 102.751 187.132 103.343V106.427C187.132 107.011 187.305 107.481 187.652 107.836C188.007 108.192 188.473 108.369 189.048 108.369ZM196.715 109.309C196.631 109.309 196.588 109.266 196.588 109.182V100.551C196.588 100.466 196.631 100.424 196.715 100.424H197.68C197.765 100.424 197.807 100.466 197.807 100.551V104.6C197.807 104.617 197.815 104.629 197.832 104.638C197.849 104.638 197.862 104.629 197.87 104.612L201.5 100.5C201.534 100.449 201.585 100.424 201.653 100.424H202.757C202.808 100.424 202.841 100.441 202.858 100.475C202.875 100.5 202.867 100.534 202.833 100.576L199.812 104.143C199.804 104.168 199.804 104.194 199.812 104.219L203.049 109.156C203.066 109.19 203.074 109.216 203.074 109.232C203.074 109.283 203.04 109.309 202.973 109.309H201.868C201.809 109.309 201.758 109.283 201.716 109.232L198.975 105.082C198.966 105.065 198.953 105.057 198.936 105.057C198.92 105.057 198.907 105.061 198.898 105.069L197.832 106.262C197.815 106.296 197.807 106.317 197.807 106.326V109.182C197.807 109.266 197.765 109.309 197.68 109.309H196.715ZM212.627 109.309C212.551 109.309 212.5 109.275 212.475 109.207L212.018 107.722C212.01 107.697 211.993 107.684 211.967 107.684H208.401C208.375 107.684 208.358 107.697 208.35 107.722L207.893 109.207C207.868 109.275 207.817 109.309 207.741 109.309H206.713C206.62 109.309 206.586 109.262 206.611 109.169L209.391 100.526C209.416 100.458 209.467 100.424 209.543 100.424H210.812C210.888 100.424 210.939 100.458 210.965 100.526L213.77 109.169L213.782 109.22C213.782 109.279 213.744 109.309 213.668 109.309H212.627ZM208.667 106.656C208.659 106.673 208.659 106.69 208.667 106.707C208.684 106.715 208.701 106.719 208.718 106.719H211.637C211.654 106.719 211.667 106.715 211.675 106.707C211.692 106.69 211.697 106.673 211.688 106.656L210.216 101.947C210.207 101.93 210.195 101.922 210.178 101.922C210.161 101.922 210.148 101.93 210.14 101.947L208.667 106.656ZM220.012 109.41C219.36 109.41 218.793 109.309 218.311 109.106C217.837 108.902 217.469 108.615 217.207 108.242C216.953 107.87 216.826 107.434 216.826 106.935V106.567C216.826 106.482 216.868 106.44 216.953 106.44H217.88C217.964 106.44 218.007 106.482 218.007 106.567V106.872C218.007 107.303 218.193 107.659 218.565 107.938C218.937 108.217 219.449 108.357 220.101 108.357C220.685 108.357 221.125 108.234 221.421 107.989C221.717 107.743 221.865 107.422 221.865 107.024C221.865 106.762 221.789 106.537 221.637 106.351C221.484 106.165 221.26 105.996 220.964 105.844C220.676 105.683 220.253 105.492 219.695 105.272C219.077 105.036 218.586 104.82 218.222 104.625C217.867 104.431 217.571 104.177 217.334 103.864C217.097 103.542 216.978 103.14 216.978 102.658C216.978 101.93 217.237 101.359 217.753 100.944C218.277 100.53 218.984 100.322 219.872 100.322C220.498 100.322 221.048 100.428 221.522 100.64C221.996 100.851 222.36 101.147 222.614 101.528C222.876 101.909 223.007 102.349 223.007 102.848V103.102C223.007 103.187 222.965 103.229 222.88 103.229H221.928C221.844 103.229 221.802 103.187 221.802 103.102V102.912C221.802 102.472 221.624 102.108 221.268 101.82C220.922 101.524 220.439 101.376 219.822 101.376C219.297 101.376 218.891 101.486 218.603 101.706C218.315 101.917 218.172 102.226 218.172 102.632C218.172 102.912 218.243 103.14 218.387 103.318C218.531 103.496 218.743 103.656 219.022 103.8C219.31 103.936 219.745 104.113 220.329 104.333C220.93 104.57 221.417 104.79 221.789 104.993C222.161 105.188 222.47 105.45 222.715 105.78C222.961 106.102 223.083 106.504 223.083 106.986C223.083 107.731 222.808 108.323 222.258 108.763C221.717 109.194 220.968 109.41 220.012 109.41ZM233.581 108.192C233.573 108.209 233.573 108.226 233.581 108.242C233.59 108.251 233.602 108.255 233.619 108.255H237.44C237.524 108.255 237.566 108.297 237.566 108.382V109.182C237.566 109.266 237.524 109.309 237.44 109.309H232.121C232.037 109.309 231.995 109.266 231.995 109.182V108.407C231.995 108.348 232.016 108.297 232.058 108.255C232.346 107.925 233.006 107.151 234.038 105.932L234.914 104.879C235.701 103.94 236.094 103.212 236.094 102.696C236.094 102.298 235.959 101.981 235.688 101.744C235.426 101.499 235.075 101.376 234.635 101.376C234.195 101.376 233.843 101.499 233.581 101.744C233.319 101.989 233.192 102.311 233.2 102.709V103.089C233.2 103.174 233.158 103.216 233.073 103.216H232.096C232.011 103.216 231.969 103.174 231.969 103.089V102.544C231.986 102.104 232.109 101.714 232.337 101.376C232.574 101.037 232.891 100.779 233.289 100.602C233.687 100.416 234.135 100.322 234.635 100.322C235.176 100.322 235.65 100.424 236.056 100.627C236.462 100.83 236.775 101.109 236.995 101.465C237.215 101.82 237.325 102.222 237.325 102.671C237.325 103.373 236.945 104.202 236.183 105.158C235.845 105.59 235.443 106.076 234.977 106.618C234.512 107.151 234.046 107.676 233.581 108.192ZM244.331 109.436C243.476 109.436 242.795 109.194 242.287 108.712C241.788 108.221 241.538 107.566 241.538 106.745V102.988C241.538 102.167 241.788 101.516 242.287 101.033C242.795 100.551 243.476 100.31 244.331 100.31C245.185 100.31 245.867 100.551 246.374 101.033C246.89 101.516 247.148 102.167 247.148 102.988V106.745C247.148 107.566 246.89 108.221 246.374 108.712C245.867 109.194 245.185 109.436 244.331 109.436ZM244.331 108.382C244.822 108.382 245.211 108.242 245.498 107.963C245.786 107.676 245.93 107.295 245.93 106.821V102.937C245.93 102.463 245.786 102.087 245.498 101.807C245.211 101.52 244.822 101.376 244.331 101.376C243.857 101.376 243.476 101.52 243.188 101.807C242.901 102.087 242.757 102.463 242.757 102.937V106.821C242.757 107.295 242.901 107.676 243.188 107.963C243.476 108.242 243.857 108.382 244.331 108.382ZM252.751 108.192C252.742 108.209 252.742 108.226 252.751 108.242C252.759 108.251 252.772 108.255 252.789 108.255H256.609C256.694 108.255 256.736 108.297 256.736 108.382V109.182C256.736 109.266 256.694 109.309 256.609 109.309H251.291C251.207 109.309 251.164 109.266 251.164 109.182V108.407C251.164 108.348 251.186 108.297 251.228 108.255C251.516 107.925 252.176 107.151 253.208 105.932L254.084 104.879C254.871 103.94 255.264 103.212 255.264 102.696C255.264 102.298 255.129 101.981 254.858 101.744C254.596 101.499 254.244 101.376 253.804 101.376C253.364 101.376 253.013 101.499 252.751 101.744C252.489 101.989 252.362 102.311 252.37 102.709V103.089C252.37 103.174 252.328 103.216 252.243 103.216H251.266C251.181 103.216 251.139 103.174 251.139 103.089V102.544C251.156 102.104 251.279 101.714 251.507 101.376C251.744 101.037 252.061 100.779 252.459 100.602C252.857 100.416 253.305 100.322 253.804 100.322C254.346 100.322 254.82 100.424 255.226 100.627C255.632 100.83 255.945 101.109 256.165 101.465C256.385 101.82 256.495 102.222 256.495 102.671C256.495 103.373 256.114 104.202 255.353 105.158C255.014 105.59 254.612 106.076 254.147 106.618C253.682 107.151 253.216 107.676 252.751 108.192ZM261.698 109.309C261.656 109.309 261.622 109.296 261.597 109.271C261.58 109.237 261.58 109.199 261.597 109.156L264.478 101.541C264.486 101.524 264.486 101.511 264.478 101.503C264.469 101.486 264.457 101.477 264.44 101.477H261.381C261.347 101.477 261.33 101.494 261.33 101.528V102.125C261.33 102.209 261.288 102.252 261.203 102.252H260.442C260.357 102.252 260.315 102.209 260.315 102.125V100.551C260.315 100.466 260.357 100.424 260.442 100.424H265.658C265.743 100.424 265.785 100.466 265.785 100.551V101.401C265.785 101.435 265.777 101.486 265.76 101.554L262.891 109.207C262.866 109.275 262.819 109.309 262.752 109.309H261.698Z" fill="#F5F3F0"/>
<path d="M1.05859 0V110" stroke="#F5F3F0" stroke-width="2.11538"/>
</svg>
